<svg width="60" height="60" viewBox="0 0 60 60" fill="none" xmlns="http://www.w3.org/2000/svg">
<path fill-rule="evenodd" clip-rule="evenodd" d="M0 30C0 13.4315 13.4315 0 30 0C46.5685 0 60 13.4315 60 30C60 46.5685 46.5685 60 30 60C13.4315 60 0 46.5685 0 30ZM30 15C38.25 15 45 21.75 45 30C45 37.5 39.5625 43.875 32.0625 45V34.3125H35.625L36.375 30H32.25V27.1875C32.25 26.0625 32.8125 24.9375 34.6875 24.9375H36.5625V21.1875C36.5625 21.1875 34.875 20.8125 33.1875 20.8125C29.8125 20.8125 27.5625 22.875 27.5625 26.625V30H23.8125V34.3125H27.5625V44.8125C20.4375 43.6875 15 37.5 15 30C15 21.75 21.75 15 30 15Z" fill="url(#paint0_linear_333_573)"/>
<defs>
<linearGradient id="paint0_linear_333_573" x1="30" y1="0" x2="30" y2="60" gradientUnits="userSpaceOnUse">
<stop stop-color="white"/>
<stop offset="1" stop-color="#D5F2FB"/>
</linearGradient>
</defs>
</svg>
